<svg width="100" height="100" xmlns="http://www.w3.org/2000/svg">
  <rect x="10" y="30" width="80" height="50" rx="4" fill="#3B82F6" stroke="#1E40AF" stroke-width="2"/>
  <rect x="15" y="35" width="8" height="8" rx="2" fill="white"/>
  <rect x="27" y="35" width="8" height="8" rx="2" fill="white"/>
  <rect x="39" y="35" width="8" height="8" rx="2" fill="white"/>
  <rect x="51" y="35" width="8" height="8" rx="2" fill="white"/>
  <rect x="63" y="35" width="8" height="8" rx="2" fill="white"/>
  <rect x="75" y="35" width="8" height="8" rx="2" fill="white"/>
  <rect x="15" y="47" width="8" height="8" rx="2" fill="white"/>
  <rect x="27" y="47" width="8" height="8" rx="2" fill="white"/>
  <rect x="39" y="47" width="8" height="8" rx="2" fill="white"/>
  <rect x="51" y="47" width="8" height="8" rx="2" fill="white"/>
  <rect x="63" y="47" width="8" height="8" rx="2" fill="white"/>
  <rect x="75" y="47" width="8" height="8" rx="2" fill="white"/>
  <rect x="20" y="59" width="50" height="8" rx="2" fill="white"/>
</svg>
